<svg width="104" height="32" viewBox="0 0 104 32" fill="none" xmlns="http://www.w3.org/2000/svg">
<path d="M5.1235 31.6935C4.40826 31.6935 3.82438 31.4745 3.37188 31.0366C2.93397 30.5841 2.71502 29.9857 2.71502 29.2412V23.1105H0V20.8334H2.71502V16.3668H5.47383V20.8334H8.45159V23.1105H5.47383V28.7595C5.47383 29.1974 5.67818 29.4164 6.0869 29.4164H8.18884V31.6935H5.1235Z" fill="white"/>
<path d="M15.5123 32C14.4321 32 13.476 31.7738 12.644 31.3213C11.8266 30.8542 11.1843 30.2046 10.7172 29.3726C10.2647 28.526 10.0385 27.5334 10.0385 26.3948V26.1321C10.0385 24.9935 10.2647 24.0082 10.7172 23.1762C11.1697 22.3296 11.8047 21.68 12.6221 21.2275C13.4396 20.7604 14.3884 20.5269 15.4685 20.5269C16.5341 20.5269 17.461 20.7677 18.2492 21.2494C19.0375 21.7165 19.6505 22.3734 20.0884 23.22C20.5263 24.052 20.7453 25.0227 20.7453 26.1321V27.0736H12.8411C12.8703 27.818 13.1476 28.4238 13.6731 28.8909C14.1986 29.358 14.8409 29.5915 15.5999 29.5915C16.3735 29.5915 16.9428 29.4237 17.3077 29.088C17.6726 28.7522 17.95 28.38 18.1397 27.9713L20.395 29.1536C20.1906 29.5332 19.8914 29.9492 19.4973 30.4017C19.1177 30.8396 18.6068 31.2191 17.9646 31.5402C17.3223 31.8468 16.5049 32 15.5123 32ZM12.863 25.0154H17.9427C17.8843 24.3878 17.6289 23.8842 17.1764 23.5046C16.7384 23.1251 16.1619 22.9354 15.4466 22.9354C14.7022 22.9354 14.111 23.1251 13.6731 23.5046C13.2352 23.8842 12.9652 24.3878 12.863 25.0154Z" fill="white"/>
<path d="M28.3024 32C27.2514 32 26.2954 31.7811 25.4341 31.3432C24.5875 30.9053 23.9161 30.2703 23.4198 29.4383C22.9235 28.6063 22.6753 27.5991 22.6753 26.4167V26.1102C22.6753 24.9278 22.9235 23.9207 23.4198 23.0886C23.9161 22.2566 24.5875 21.6217 25.4341 21.1837C26.2954 20.7458 27.2514 20.5269 28.3024 20.5269C29.3388 20.5269 30.2292 20.7093 30.9736 21.0743C31.7181 21.4392 32.3166 21.9428 32.7691 22.585C33.2362 23.2127 33.5427 23.928 33.6887 24.7308L31.0174 25.3001C30.9591 24.8622 30.8277 24.468 30.6233 24.1177C30.419 23.7674 30.127 23.4901 29.7475 23.2857C29.3826 23.0813 28.9228 22.9792 28.3681 22.9792C27.8134 22.9792 27.3098 23.1032 26.8573 23.3514C26.4194 23.5849 26.0691 23.9426 25.8064 24.4242C25.5582 24.8913 25.4341 25.4679 25.4341 26.154V26.3729C25.4341 27.059 25.5582 27.6429 25.8064 28.1246C26.0691 28.5917 26.4194 28.9493 26.8573 29.1974C27.3098 29.431 27.8134 29.5478 28.3681 29.5478C29.2001 29.5478 29.8278 29.3361 30.2511 28.9128C30.689 28.4749 30.9663 27.9056 31.0831 27.205L33.7544 27.8399C33.5646 28.6136 33.2362 29.3215 32.7691 29.9638C32.3166 30.5914 31.7181 31.0877 30.9736 31.4526C30.2292 31.8176 29.3388 32 28.3024 32Z" fill="white"/>
<path d="M36.0301 31.6935V16.3668H38.7889V22.169H39.183C39.2998 21.9355 39.4823 21.7019 39.7304 21.4684C39.9785 21.2348 40.307 21.0451 40.7157 20.8991C41.139 20.7385 41.6718 20.6583 42.314 20.6583C43.1607 20.6583 43.8978 20.8553 44.5255 21.2494C45.1677 21.6289 45.664 22.1617 46.0144 22.8478C46.3647 23.5192 46.5398 24.3075 46.5398 25.2125V31.6935H43.781V25.4314C43.781 24.614 43.5767 24.0009 43.168 23.5922C42.7738 23.1835 42.2046 22.9792 41.4601 22.9792C40.6135 22.9792 39.9567 23.2638 39.4896 23.8331C39.0225 24.3878 38.7889 25.1687 38.7889 26.1759V31.6935H36.0301Z" fill="white"/>
<path d="M53.383 31.6935C52.6677 31.6935 52.0839 31.4745 51.6314 31.0366C51.1934 30.5841 50.9745 29.9857 50.9745 29.2412V23.1105H48.2595V20.8334H50.9745V17.4615H53.7333V20.8334H56.7111V23.1105H53.7333V28.7595C53.7333 29.1974 53.9377 29.4164 54.3464 29.4164H56.4483V31.6935H53.383Z" fill="white"/>
<path d="M62.5802 32C61.8066 32 61.1132 31.8687 60.5002 31.6059C59.8871 31.3286 59.3981 30.9345 59.0332 30.4236C58.6828 29.8981 58.5077 29.2631 58.5077 28.5187C58.5077 27.7742 58.6828 27.1539 59.0332 26.6576C59.3981 26.1467 59.8944 25.7672 60.522 25.519C61.1643 25.2563 61.8941 25.1249 62.7116 25.1249H65.6893V24.5118C65.6893 24.0009 65.5288 23.5849 65.2076 23.2638C64.8865 22.9281 64.3756 22.7602 63.675 22.7602C62.9889 22.7602 62.478 22.9208 62.1423 23.2419C61.8066 23.5484 61.5876 23.9499 61.4854 24.4461L58.9456 23.5922C59.1207 23.0375 59.3981 22.534 59.7776 22.0815C60.1717 21.6144 60.6899 21.2421 61.3322 20.9648C61.989 20.6729 62.7846 20.5269 63.7188 20.5269C65.1493 20.5269 66.2805 20.8845 67.1125 21.5998C67.9446 22.315 68.3606 23.3514 68.3606 24.7089V28.7595C68.3606 29.1974 68.5649 29.4164 68.9736 29.4164H69.8494V31.6935H68.0102C67.4702 31.6935 67.025 31.5621 66.6746 31.2994C66.3243 31.0366 66.1491 30.6863 66.1491 30.2484V30.2265H65.7331C65.6747 30.4017 65.5434 30.6352 65.339 30.9272C65.1347 31.2045 64.8135 31.4526 64.3756 31.6716C63.9377 31.8905 63.3392 32 62.5802 32ZM63.0619 29.7667C63.8355 29.7667 64.4632 29.5551 64.9449 29.1317C65.4412 28.6938 65.6893 28.1173 65.6893 27.402V27.1831H62.9086C62.3977 27.1831 61.9963 27.2925 61.7044 27.5115C61.4125 27.7304 61.2665 28.037 61.2665 28.4311C61.2665 28.8252 61.4198 29.1463 61.7263 29.3945C62.0328 29.6426 62.478 29.7667 63.0619 29.7667Z" fill="white"/>
<path d="M71.8666 31.6935V20.8334H74.6254V31.6935H71.8666ZM73.246 19.5635C72.7497 19.5635 72.3264 19.4029 71.976 19.0818C71.6403 18.7607 71.4724 18.3374 71.4724 17.8119C71.4724 17.2864 71.6403 16.8631 71.976 16.5419C72.3264 16.2208 72.7497 16.0602 73.246 16.0602C73.7569 16.0602 74.1802 16.2208 74.5159 16.5419C74.8516 16.8631 75.0195 17.2864 75.0195 17.8119C75.0195 18.3374 74.8516 18.7607 74.5159 19.0818C74.1802 19.4029 73.7569 19.5635 73.246 19.5635Z" fill="white"/>
<path d="M77.6825 31.6935V16.3668H80.4413V31.6935H77.6825Z" fill="white"/>
<path d="M88.6657 32C87.5856 32 86.6149 31.7811 85.7537 31.3432C84.8924 30.9053 84.2137 30.2703 83.7174 29.4383C83.2211 28.6063 82.9729 27.6064 82.9729 26.4386V26.0883C82.9729 24.9205 83.2211 23.9207 83.7174 23.0886C84.2137 22.2566 84.8924 21.6217 85.7537 21.1837C86.6149 20.7458 87.5856 20.5269 88.6657 20.5269C89.7459 20.5269 90.7166 20.7458 91.5778 21.1837C92.439 21.6217 93.1178 22.2566 93.6141 23.0886C94.1104 23.9207 94.3585 24.9205 94.3585 26.0883V26.4386C94.3585 27.6064 94.1104 28.6063 93.6141 29.4383C93.1178 30.2703 92.439 30.9053 91.5778 31.3432C90.7166 31.7811 89.7459 32 88.6657 32ZM88.6657 29.5478C89.5124 29.5478 90.213 29.2777 90.7677 28.7376C91.3224 28.1829 91.5997 27.3947 91.5997 26.3729V26.154C91.5997 25.1322 91.3224 24.3513 90.7677 23.8112C90.2276 23.2565 89.5269 22.9792 88.6657 22.9792C87.8191 22.9792 87.1185 23.2565 86.5638 23.8112C86.0091 24.3513 85.7318 25.1322 85.7318 26.154V26.3729C85.7318 27.3947 86.0091 28.1829 86.5638 28.7376C87.1185 29.2777 87.8191 29.5478 88.6657 29.5478Z" fill="white"/>
<path d="M96.905 31.6935V20.8334H99.62V22.0596H100.014C100.175 21.6217 100.437 21.3005 100.802 21.0962C101.182 20.8918 101.62 20.7896 102.116 20.7896H103.43V23.2419H102.072C101.372 23.2419 100.795 23.4317 100.343 23.8112C99.8901 24.1761 99.6638 24.7454 99.6638 25.519V31.6935H96.905Z" fill="white"/>
<rect x="2.7168" width="2.84639" height="13.0612" fill="#A09FA4"/>
<rect x="15.1953" width="2.84639" height="13.0612" fill="#FF3C2E"/>
<rect x="27.6738" width="2.84639" height="13.0612" fill="#A09FA4"/>
<rect x="40.1523" width="2.84639" height="13.0612" fill="#A09FA4"/>
<rect x="52.6309" width="2.84639" height="13.0612" fill="#A09FA4"/>
<rect x="65.1094" width="2.84639" height="13.0612" fill="#A09FA4"/>
<rect x="77.5879" width="2.84639" height="13.0612" fill="#A09FA4"/>
<rect x="8.95508" y="6.29608" width="2.84639" height="6.71584" fill="#A09FA4"/>
<rect x="21.4355" y="6.29608" width="2.84639" height="6.71584" fill="#A09FA4"/>
<rect x="33.9141" y="6.29608" width="2.84639" height="6.71584" fill="#A09FA4"/>
<rect x="46.3926" y="6.29608" width="2.84639" height="6.71584" fill="#A09FA4"/>
<rect x="58.8711" y="6.29608" width="2.84639" height="6.71584" fill="#A09FA4"/>
<rect x="71.3496" y="6.29608" width="2.84639" height="6.71584" fill="#A09FA4"/>
</svg>
